<mxfile host="app.diagrams.net" modified="2024-01-16T10:00:00.000Z" agent="5.0" etag="aws123" version="22.1.16" type="device">
  <diagram name="Architecture AWS" id="aws-architecture">
    <mxGraphModel dx="1422" dy="794" grid="1" gridSize="10" guides="1" tooltips="1" connect="1" arrows="1" fold="1" page="1" pageScale="1" pageWidth="1169" pageHeight="827" math="0" shadow="0">
      <root>
        <mxCell id="0" />
        <mxCell id="1" parent="0" />
        
        <!-- Titre -->
        <mxCell id="title" value="R-Type 2 - Architecture AWS Déployée" style="text;html=1;strokeColor=none;fillColor=none;align=center;verticalAlign=middle;whiteSpace=wrap;rounded=0;fontSize=20;fontStyle=1;" vertex="1" parent="1">
          <mxGeometry x="300" y="20" width="569" height="30" as="geometry" />
        </mxCell>
        
        <!-- Internet -->
        <mxCell id="internet" value="🌐 INTERNET" style="ellipse;whiteSpace=wrap;html=1;fillColor=#f0f0f0;strokeColor=#666666;fontSize=16;fontStyle=1;" vertex="1" parent="1">
          <mxGeometry x="80" y="80" width="120" height="60" as="geometry" />
        </mxCell>
        
        <!-- Users -->
        <mxCell id="users" value="👥 Utilisateurs&#xa;Joueurs R-Type 2" style="rounded=1;whiteSpace=wrap;html=1;fillColor=#e1d5e7;strokeColor=#9673a6;fontSize=12;" vertex="1" parent="1">
          <mxGeometry x="80" y="180" width="120" height="60" as="geometry" />
        </mxCell>
        
        <!-- Route 53 (Optional) -->
        <mxCell id="route53" value="🌍 Route 53&#xa;DNS Management&#xa;rtype.example.com" style="rounded=1;whiteSpace=wrap;html=1;fillColor=#fff2cc;strokeColor=#d6b656;fontSize=10;" vertex="1" parent="1">
          <mxGeometry x="280" y="80" width="120" height="60" as="geometry" />
        </mxCell>
        
        <!-- CloudFront -->
        <mxCell id="cloudfront" value="☁️ CloudFront&#xa;CDN Global&#xa;Cache Optimisé" style="rounded=1;whiteSpace=wrap;html=1;fillColor=#dae8fc;strokeColor=#6c8ebf;fontSize=14;fontStyle=1;" vertex="1" parent="1">
          <mxGeometry x="480" y="80" width="150" height="80" as="geometry" />
        </mxCell>
        
        <!-- CloudFront Details -->
        <mxCell id="cf-details" value="• HTTPS Obligatoire&#xa;• Compression Gzip&#xa;• Cache Headers&#xa;• Security Headers&#xa;• PriceClass_100" style="text;html=1;strokeColor=#6c8ebf;fillColor=#dae8fc;align=left;verticalAlign=top;whiteSpace=wrap;rounded=1;fontSize=9;" vertex="1" parent="1">
          <mxGeometry x="480" y="170" width="150" height="70" as="geometry" />
        </mxCell>
        
        <!-- Origin Access Control -->
        <mxCell id="oac" value="🔒 Origin Access Control&#xa;Sécurité S3" style="rounded=1;whiteSpace=wrap;html=1;fillColor=#f8cecc;strokeColor=#b85450;fontSize=10;" vertex="1" parent="1">
          <mxGeometry x="680" y="120" width="120" height="50" as="geometry" />
        </mxCell>
        
        <!-- S3 Bucket -->
        <mxCell id="s3" value="🪣 S3 Bucket&#xa;Static Website&#xa;Game Assets" style="rounded=1;whiteSpace=wrap;html=1;fillColor=#d5e8d4;strokeColor=#82b366;fontSize=14;fontStyle=1;" vertex="1" parent="1">
          <mxGeometry x="850" y="80" width="150" height="80" as="geometry" />
        </mxCell>
        
        <!-- S3 Details -->
        <mxCell id="s3-details" value="• Encryption AES-256&#xa;• Versioning Enabled&#xa;• Lifecycle Rules&#xa;• Public Access Blocked&#xa;• CloudFront Only Access" style="text;html=1;strokeColor=#82b366;fillColor=#d5e8d4;align=left;verticalAlign=top;whiteSpace=wrap;rounded=1;fontSize=9;" vertex="1" parent="1">
          <mxGeometry x="850" y="170" width="150" height="70" as="geometry" />
        </mxCell>
        
        <!-- CloudWatch -->
        <mxCell id="cloudwatch" value="📊 CloudWatch&#xa;Monitoring&#xa;Metrics & Logs" style="rounded=1;whiteSpace=wrap;html=1;fillColor=#fff2cc;strokeColor=#d6b656;fontSize=12;" vertex="1" parent="1">
          <mxGeometry x="480" y="300" width="120" height="60" as="geometry" />
        </mxCell>
        
        <!-- SNS -->
        <mxCell id="sns" value="📧 SNS&#xa;Alertes Email&#xa;Notifications" style="rounded=1;whiteSpace=wrap;html=1;fillColor=#f8cecc;strokeColor=#b85450;fontSize=12;" vertex="1" parent="1">
          <mxGeometry x="650" y="300" width="120" height="60" as="geometry" />
        </mxCell>
        
        <!-- CloudFormation -->
        <mxCell id="cloudformation" value="🏗️ CloudFormation&#xa;Infrastructure as Code&#xa;Automated Deployment" style="rounded=1;whiteSpace=wrap;html=1;fillColor=#e1d5e7;strokeColor=#9673a6;fontSize=12;" vertex="1" parent="1">
          <mxGeometry x="80" y="400" width="150" height="60" as="geometry" />
        </mxCell>
        
        <!-- Developer -->
        <mxCell id="developer" value="👨‍💻 Développeur&#xa;Local Development" style="rounded=1;whiteSpace=wrap;html=1;fillColor=#f0f0f0;strokeColor=#666666;fontSize=12;" vertex="1" parent="1">
          <mxGeometry x="80" y="320" width="120" height="60" as="geometry" />
        </mxCell>
        
        <!-- Flux de données -->
        <mxCell id="flow1" style="edgeStyle=orthogonalEdgeStyle;rounded=0;orthogonalLoop=1;jettySize=auto;html=1;exitX=1;exitY=0.5;exitDx=0;exitDy=0;entryX=0;entryY=0.5;entryDx=0;entryDy=0;strokeWidth=3;strokeColor=#2D7600;" edge="1" parent="1" source="users" target="route53">
          <mxGeometry relative="1" as="geometry" />
        </mxCell>
        <mxCell id="flow1-label" value="DNS Query" style="text;html=1;strokeColor=none;fillColor=none;align=center;verticalAlign=middle;whiteSpace=wrap;rounded=0;fontSize=10;fontStyle=1;color=#2D7600;" vertex="1" parent="1">
          <mxGeometry x="210" y="190" width="60" height="20" as="geometry" />
        </mxCell>
        
        <mxCell id="flow2" style="edgeStyle=orthogonalEdgeStyle;rounded=0;orthogonalLoop=1;jettySize=auto;html=1;exitX=1;exitY=0.5;exitDx=0;exitDy=0;entryX=0;entryY=0.5;entryDx=0;entryDy=0;strokeWidth=3;strokeColor=#1BA1E2;" edge="1" parent="1" source="route53" target="cloudfront">
          <mxGeometry relative="1" as="geometry" />
        </mxCell>
        <mxCell id="flow2-label" value="HTTPS Request" style="text;html=1;strokeColor=none;fillColor=none;align=center;verticalAlign=middle;whiteSpace=wrap;rounded=0;fontSize=10;fontStyle=1;color=#1BA1E2;" vertex="1" parent="1">
          <mxGeometry x="410" y="100" width="80" height="20" as="geometry" />
        </mxCell>
        
        <mxCell id="flow3" style="edgeStyle=orthogonalEdgeStyle;rounded=0;orthogonalLoop=1;jettySize=auto;html=1;exitX=1;exitY=0.5;exitDx=0;exitDy=0;entryX=0;entryY=0.5;entryDx=0;entryDy=0;strokeWidth=3;strokeColor=#FF8000;" edge="1" parent="1" source="cloudfront" target="s3">
          <mxGeometry relative="1" as="geometry" />
        </mxCell>
        <mxCell id="flow3-label" value="Origin Request&#xa;(via OAC)" style="text;html=1;strokeColor=none;fillColor=none;align=center;verticalAlign=middle;whiteSpace=wrap;rounded=0;fontSize=10;fontStyle=1;color=#FF8000;" vertex="1" parent="1">
          <mxGeometry x="750" y="105" width="80" height="30" as="geometry" />
        </mxCell>
        
        <!-- Monitoring flows -->
        <mxCell id="monitor1" style="edgeStyle=orthogonalEdgeStyle;rounded=0;orthogonalLoop=1;jettySize=auto;html=1;exitX=0.5;exitY=1;exitDx=0;exitDy=0;entryX=0.5;entryY=0;entryDx=0;entryDy=0;strokeWidth=2;strokeColor=#D6B656;strokeStyle=dashed;" edge="1" parent="1" source="cloudfront" target="cloudwatch">
          <mxGeometry relative="1" as="geometry" />
        </mxCell>
        <mxCell id="monitor1-label" value="Metrics" style="text;html=1;strokeColor=none;fillColor=none;align=center;verticalAlign=middle;whiteSpace=wrap;rounded=0;fontSize=9;fontStyle=1;color=#D6B656;" vertex="1" parent="1">
          <mxGeometry x="520" y="250" width="50" height="20" as="geometry" />
        </mxCell>
        
        <mxCell id="monitor2" style="edgeStyle=orthogonalEdgeStyle;rounded=0;orthogonalLoop=1;jettySize=auto;html=1;exitX=1;exitY=0.5;exitDx=0;exitDy=0;entryX=0;entryY=0.5;entryDx=0;entryDy=0;strokeWidth=2;strokeColor=#B85450;strokeStyle=dashed;" edge="1" parent="1" source="cloudwatch" target="sns">
          <mxGeometry relative="1" as="geometry" />
        </mxCell>
        <mxCell id="monitor2-label" value="Alerts" style="text;html=1;strokeColor=none;fillColor=none;align=center;verticalAlign=middle;whiteSpace=wrap;rounded=0;fontSize=9;fontStyle=1;color=#B85450;" vertex="1" parent="1">
          <mxGeometry x="610" y="320" width="40" height="20" as="geometry" />
        </mxCell>
        
        <!-- Deployment flow -->
        <mxCell id="deploy1" style="edgeStyle=orthogonalEdgeStyle;rounded=0;orthogonalLoop=1;jettySize=auto;html=1;exitX=0.5;exitY=1;exitDx=0;exitDy=0;entryX=0.5;entryY=0;entryDx=0;entryDy=0;strokeWidth=2;strokeColor=#9673A6;" edge="1" parent="1" source="developer" target="cloudformation">
          <mxGeometry relative="1" as="geometry" />
        </mxCell>
        <mxCell id="deploy1-label" value="Deploy" style="text;html=1;strokeColor=none;fillColor=none;align=center;verticalAlign=middle;whiteSpace=wrap;rounded=0;fontSize=9;fontStyle=1;color=#9673A6;" vertex="1" parent="1">
          <mxGeometry x="120" y="385" width="40" height="20" as="geometry" />
        </mxCell>
        
        <!-- Cache Layers -->
        <mxCell id="cache-title" value="COUCHES DE CACHE" style="text;html=1;strokeColor=none;fillColor=none;align=center;verticalAlign=middle;whiteSpace=wrap;rounded=0;fontSize=14;fontStyle=1;" vertex="1" parent="1">
          <mxGeometry x="80" y="500" width="200" height="30" as="geometry" />
        </mxCell>
        
        <mxCell id="cache-edge" value="Edge Cache&#xa;Global CDN&#xa;TTL: 1-30 days" style="rounded=1;whiteSpace=wrap;html=1;fillColor=#dae8fc;strokeColor=#6c8ebf;fontSize=10;" vertex="1" parent="1">
          <mxGeometry x="80" y="540" width="100" height="60" as="geometry" />
        </mxCell>
        
        <mxCell id="cache-browser" value="Browser Cache&#xa;Client Side&#xa;TTL: 5min-1day" style="rounded=1;whiteSpace=wrap;html=1;fillColor=#e1d5e7;strokeColor=#9673a6;fontSize=10;" vertex="1" parent="1">
          <mxGeometry x="200" y="540" width="100" height="60" as="geometry" />
        </mxCell>
        
        <!-- Security -->
        <mxCell id="security-title" value="SÉCURITÉ" style="text;html=1;strokeColor=none;fillColor=none;align=center;verticalAlign=middle;whiteSpace=wrap;rounded=0;fontSize=14;fontStyle=1;" vertex="1" parent="1">
          <mxGeometry x="400" y="500" width="200" height="30" as="geometry" />
        </mxCell>
        
        <mxCell id="security-https" value="🔒 HTTPS Only&#xa;TLS 1.2+&#xa;SSL Certificate" style="rounded=1;whiteSpace=wrap;html=1;fillColor=#f8cecc;strokeColor=#b85450;fontSize=10;" vertex="1" parent="1">
          <mxGeometry x="400" y="540" width="90" height="60" as="geometry" />
        </mxCell>
        
        <mxCell id="security-headers" value="🛡️ Security Headers&#xa;XSS Protection&#xa;CSRF Prevention" style="rounded=1;whiteSpace=wrap;html=1;fillColor=#f8cecc;strokeColor=#b85450;fontSize=10;" vertex="1" parent="1">
          <mxGeometry x="510" y="540" width="90" height="60" as="geometry" />
        </mxCell>
        
        <mxCell id="security-oac" value="🔐 OAC&#xa;S3 Access Control&#xa;No Public Access" style="rounded=1;whiteSpace=wrap;html=1;fillColor=#f8cecc;strokeColor=#b85450;fontSize=10;" vertex="1" parent="1">
          <mxGeometry x="620" y="540" width="90" height="60" as="geometry" />
        </mxCell>
        
        <!-- Cost Optimization -->
        <mxCell id="cost-title" value="OPTIMISATION COÛTS" style="text;html=1;strokeColor=none;fillColor=none;align=center;verticalAlign=middle;whiteSpace=wrap;rounded=0;fontSize=14;fontStyle=1;" vertex="1" parent="1">
          <mxGeometry x="750" y="500" width="200" height="30" as="geometry" />
        </mxCell>
        
        <mxCell id="cost-price" value="💰 PriceClass_100&#xa;NA + Europe Only&#xa;Cost Optimized" style="rounded=1;whiteSpace=wrap;html=1;fillColor=#fff2cc;strokeColor=#d6b656;fontSize=10;" vertex="1" parent="1">
          <mxGeometry x="750" y="540" width="90" height="60" as="geometry" />
        </mxCell>
        
        <mxCell id="cost-lifecycle" value="♻️ S3 Lifecycle&#xa;Delete Old Versions&#xa;30 Days Retention" style="rounded=1;whiteSpace=wrap;html=1;fillColor=#fff2cc;strokeColor=#d6b656;fontSize=10;" vertex="1" parent="1">
          <mxGeometry x="860" y="540" width="90" height="60" as="geometry" />
        </mxCell>
        
        <!-- Performance Metrics -->
        <mxCell id="perf-title" value="MÉTRIQUES PERFORMANCE" style="text;html=1;strokeColor=none;fillColor=none;align=center;verticalAlign=middle;whiteSpace=wrap;rounded=0;fontSize=14;fontStyle=1;" vertex="1" parent="1">
          <mxGeometry x="80" y="640" width="200" height="30" as="geometry" />
        </mxCell>
        
        <mxCell id="perf-metrics" value="📈 Métriques Surveillées:&#xa;• Requests/min&#xa;• Cache Hit Rate (>80%)&#xa;• Error Rate (<10%)&#xa;• Origin Latency&#xa;• Bytes Downloaded" style="text;html=1;strokeColor=#d6b656;fillColor=#fff2cc;align=left;verticalAlign=top;whiteSpace=wrap;rounded=1;fontSize=10;" vertex="1" parent="1">
          <mxGeometry x="80" y="680" width="200" height="80" as="geometry" />
        </mxCell>
        
        <!-- Deployment Info -->
        <mxCell id="deploy-title" value="DÉPLOIEMENT" style="text;html=1;strokeColor=none;fillColor=none;align=center;verticalAlign=middle;whiteSpace=wrap;rounded=0;fontSize=14;fontStyle=1;" vertex="1" parent="1">
          <mxGeometry x="350" y="640" width="200" height="30" as="geometry" />
        </mxCell>
        
        <mxCell id="deploy-info" value="🚀 Processus Automatisé:&#xa;• CloudFormation Templates&#xa;• Build Script (JS/SVG)&#xa;• S3 Sync with Headers&#xa;• CloudFront Invalidation&#xa;• Health Check&#xa;• Monitoring Setup" style="text;html=1;strokeColor=#9673a6;fillColor=#e1d5e7;align=left;verticalAlign=top;whiteSpace=wrap;rounded=1;fontSize=10;" vertex="1" parent="1">
          <mxGeometry x="350" y="680" width="200" height="80" as="geometry" />
        </mxCell>
        
        <!-- Environments -->
        <mxCell id="env-title" value="ENVIRONNEMENTS" style="text;html=1;strokeColor=none;fillColor=none;align=center;verticalAlign=middle;whiteSpace=wrap;rounded=0;fontSize=14;fontStyle=1;" vertex="1" parent="1">
          <mxGeometry x="620" y="640" width="200" height="30" as="geometry" />
        </mxCell>
        
        <mxCell id="env-dev" value="🔧 DEV&#xa;dev-rtype.com&#xa;All files + tests" style="rounded=1;whiteSpace=wrap;html=1;fillColor=#d5e8d4;strokeColor=#82b366;fontSize=9;" vertex="1" parent="1">
          <mxGeometry x="620" y="680" width="80" height="50" as="geometry" />
        </mxCell>
        
        <mxCell id="env-staging" value="🧪 STAGING&#xa;staging-rtype.com&#xa;Pre-production" style="rounded=1;whiteSpace=wrap;html=1;fillColor=#fff2cc;strokeColor=#d6b656;fontSize=9;" vertex="1" parent="1">
          <mxGeometry x="710" y="680" width="80" height="50" as="geometry" />
        </mxCell>
        
        <mxCell id="env-prod" value="🚀 PROD&#xa;rtype.com&#xa;Optimized build" style="rounded=1;whiteSpace=wrap;html=1;fillColor=#f8cecc;strokeColor=#b85450;fontSize=9;" vertex="1" parent="1">
          <mxGeometry x="800" y="680" width="80" height="50" as="geometry" />
        </mxCell>
        
        <!-- Cost Estimate -->
        <mxCell id="cost-estimate" value="💵 Coût Estimé: ~$1.20/mois&#xa;• S3 Storage (100MB): $0.02&#xa;• CloudFront (10GB): $0.85&#xa;• CloudWatch: $0.30&#xa;• Route 53: $0.50 (optionnel)" style="text;html=1;strokeColor=#d79b00;fillColor=#ffe6cc;align=left;verticalAlign=top;whiteSpace=wrap;rounded=1;fontSize=10;" vertex="1" parent="1">
          <mxGeometry x="890" y="680" width="200" height="80" as="geometry" />
        </mxCell>
      </root>
    </mxGraphModel>
  </diagram>
</mxfile>
